<svg width="220" height="238" viewBox="0 0 220 238" fill="none" xmlns="http://www.w3.org/2000/svg">
<path d="M77.3012 181.733C88.1528 186.545 99.9329 188.903 111.801 188.638C123.669 188.373 135.332 185.492 145.958 180.2C156.584 174.908 165.911 167.336 173.273 158.023C180.635 148.711 185.851 137.889 188.548 126.328C191.245 114.768 191.358 102.755 188.877 91.1459C186.396 79.5372 181.384 68.6191 174.197 59.1709C167.01 49.7227 157.826 41.9773 147.301 36.4876C136.776 30.9978 125.169 27.899 113.308 27.4124L112.084 57.2303C119.557 57.5369 126.869 59.4892 133.5 62.9477C140.131 66.4063 145.917 71.2858 150.444 77.2382C154.972 83.1906 158.13 90.0689 159.693 97.3825C161.256 104.696 161.185 112.264 159.486 119.547C157.786 126.83 154.5 133.649 149.862 139.515C145.224 145.382 139.348 150.153 132.654 153.487C125.959 156.821 118.612 158.636 111.135 158.803C103.658 158.97 96.2366 157.484 89.4001 154.452L77.3012 181.733Z" fill="#B2F38A"/>
<g filter="url(#filter0_d_4991_9036)">
<path d="M77.3014 181.732C88.1529 186.545 99.933 188.903 111.801 188.638C123.669 188.373 135.332 185.492 145.958 180.2C156.584 174.908 165.911 167.336 173.273 158.023C180.635 148.711 185.851 137.889 188.548 126.328C191.246 114.768 191.358 102.755 188.877 91.1459C186.396 79.5371 181.384 68.619 174.197 59.1708C167.01 49.7227 157.826 41.9773 147.301 36.4876C136.776 30.9978 125.169 27.899 113.308 27.4123" stroke="#A7EB7E" stroke-width="1.48588"/>
</g>
<path d="M90.2726 29.7955C74.1915 33.8527 59.752 42.7687 48.9211 55.3288C38.0902 67.889 31.3946 83.4826 29.7463 99.9855C28.098 116.489 31.5771 133.098 39.7098 147.553C47.8425 162.007 60.2332 173.603 75.1942 180.76L88.0738 153.84C78.6483 149.33 70.8421 142.025 65.7186 132.919C60.595 123.813 58.4031 113.348 59.4416 102.952C60.48 92.5547 64.6983 82.7307 71.5217 74.8178C78.3452 66.9049 87.442 61.2878 97.5732 58.7318L90.2726 29.7955Z" fill="#85F1B7"/>
<g filter="url(#filter1_d_4991_9036)">
<path d="M90.2725 29.7957C74.1913 33.8529 59.7518 42.7688 48.9209 55.329C38.0901 67.8891 31.3944 83.4827 29.7461 99.9857C28.0978 116.489 31.5769 133.099 39.7096 147.553C47.8423 162.007 60.233 173.603 75.1941 180.76" stroke="#AFFFD4" stroke-width="1.48588"/>
</g>
<g filter="url(#filter2_d_4991_9036)">
<path d="M110.656 27.3479C104.761 27.3001 98.878 27.8989 93.1132 29.1335L99.3625 58.3149C102.994 57.5371 106.701 57.1599 110.415 57.1899L110.656 27.3479Z" fill="#8CEFF6"/>
</g>
<path d="M93.7529 28.9748C96.9723 28.2319 105.268 27.4892 110.098 27.489" stroke="#79E0E7" stroke-width="1.48588" stroke-linecap="square"/>
<circle cx="110.316" cy="108.317" r="56.7374" fill="url(#paint0_linear_4991_9036)"/>
<circle cx="110.009" cy="108.113" r="48.8482" transform="rotate(2.23154 110.009 108.113)" stroke="#C5CCD7" stroke-width="0.371469" stroke-dasharray="0.74 2.97"/>
<circle cx="109.984" cy="108.096" r="51.7101" transform="rotate(3.72795 109.984 108.096)" stroke="#E0E4EA" stroke-width="0.371469" stroke-dasharray="0.74 2.97"/>
<circle cx="110.469" cy="108.18" r="47.7361" transform="rotate(-15 110.469 108.18)" stroke="#C5CCD7" stroke-width="0.371469" stroke-dasharray="0.74 3.71"/>
<circle cx="110.469" cy="108.18" r="50.5331" transform="rotate(-13.5036 110.469 108.18)" stroke="#E0E4EA" stroke-width="0.371469" stroke-dasharray="0.74 3.71"/>
<circle cx="110.18" cy="108.1" r="49.8634" transform="rotate(5.49147 110.18 108.1)" stroke="#C5CCD7" stroke-width="0.371469" stroke-dasharray="0.74 4.46"/>
<circle cx="110.165" cy="108.088" r="52.7845" transform="rotate(6.98787 110.165 108.088)" stroke="#E0E4EA" stroke-width="0.37147" stroke-dasharray="0.74 4.46"/>
<g filter="url(#filter3_b_4991_9036)">
<circle cx="110.469" cy="108.469" r="43.0904" fill="white"/>
</g>
<circle cx="88.9248" cy="107.725" r="2.97175" fill="#B7BECD"/>
<circle cx="121.041" cy="107.724" r="1.85735" stroke="#B7BECD" stroke-width="2.22882"/>
<circle cx="120.298" cy="86.922" r="2.97175" fill="#B7BECD"/>
<circle cx="120.298" cy="128.527" r="2.97175" fill="#B7BECD"/>
<path d="M95.6106 107.726L114.184 107.726" stroke="#B7BECD" stroke-width="0.742938"/>
<path d="M106.012 95.8391L106.012 128.528" stroke="#B7BECD" stroke-width="0.742938"/>
<path d="M106.012 86.9241L106.012 92.1246" stroke="#B7BECD" stroke-width="0.742938"/>
<path d="M106.182 86.9241H113.611" stroke="#B7BECD" stroke-width="0.742939"/>
<path d="M106.012 128.529H110.469" stroke="#B7BECD" stroke-width="0.742939"/>
<defs>
<filter id="filter0_d_4991_9036" x="48.7974" y="18.375" width="170.806" height="219.137" filterUnits="userSpaceOnUse" color-interpolation-filters="sRGB">
<feFlood flood-opacity="0" result="BackgroundImageFix"/>
<feColorMatrix in="SourceAlpha" type="matrix" values="0 0 0 0 0 0 0 0 0 0 0 0 0 0 0 0 0 0 127 0" result="hardAlpha"/>
<feOffset dy="19.9078"/>
<feGaussianBlur stdDeviation="14.1014"/>
<feComposite in2="hardAlpha" operator="out"/>
<feColorMatrix type="matrix" values="0 0 0 0 0.129412 0 0 0 0 0.141176 0 0 0 0 0.160784 0 0 0 0.12 0"/>
<feBlend mode="normal" in2="BackgroundImageFix" result="effect1_dropShadow_4991_9036"/>
<feBlend mode="normal" in="SourceGraphic" in2="effect1_dropShadow_4991_9036" result="shape"/>
</filter>
<filter id="filter1_d_4991_9036" x="0.401094" y="20.7803" width="118.256" height="208.761" filterUnits="userSpaceOnUse" color-interpolation-filters="sRGB">
<feFlood flood-opacity="0" result="BackgroundImageFix"/>
<feColorMatrix in="SourceAlpha" type="matrix" values="0 0 0 0 0 0 0 0 0 0 0 0 0 0 0 0 0 0 127 0" result="hardAlpha"/>
<feOffset dy="19.9078"/>
<feGaussianBlur stdDeviation="14.1013"/>
<feComposite in2="hardAlpha" operator="out"/>
<feColorMatrix type="matrix" values="0 0 0 0 0.129412 0 0 0 0 0.141176 0 0 0 0 0.160784 0 0 0 0.12 0"/>
<feBlend mode="normal" in2="BackgroundImageFix" result="effect1_dropShadow_4991_9036"/>
<feBlend mode="normal" in="SourceGraphic" in2="effect1_dropShadow_4991_9036" result="shape"/>
</filter>
<filter id="filter2_d_4991_9036" x="64.9105" y="19.0503" width="73.9484" height="87.3751" filterUnits="userSpaceOnUse" color-interpolation-filters="sRGB">
<feFlood flood-opacity="0" result="BackgroundImageFix"/>
<feColorMatrix in="SourceAlpha" type="matrix" values="0 0 0 0 0 0 0 0 0 0 0 0 0 0 0 0 0 0 127 0" result="hardAlpha"/>
<feOffset dy="19.9078"/>
<feGaussianBlur stdDeviation="14.1013"/>
<feComposite in2="hardAlpha" operator="out"/>
<feColorMatrix type="matrix" values="0 0 0 0 0.129412 0 0 0 0 0.141176 0 0 0 0 0.160784 0 0 0 0.12 0"/>
<feBlend mode="normal" in2="BackgroundImageFix" result="effect1_dropShadow_4991_9036"/>
<feBlend mode="normal" in="SourceGraphic" in2="effect1_dropShadow_4991_9036" result="shape"/>
</filter>
<filter id="filter3_b_4991_9036" x="30.2319" y="28.232" width="160.475" height="160.475" filterUnits="userSpaceOnUse" color-interpolation-filters="sRGB">
<feFlood flood-opacity="0" result="BackgroundImageFix"/>
<feGaussianBlur in="BackgroundImage" stdDeviation="18.5735"/>
<feComposite in2="SourceAlpha" operator="in" result="effect1_backgroundBlur_4991_9036"/>
<feBlend mode="normal" in="SourceGraphic" in2="effect1_backgroundBlur_4991_9036" result="shape"/>
</filter>
<linearGradient id="paint0_linear_4991_9036" x1="89.6668" y1="74.6655" x2="133.5" y2="129.271" gradientUnits="userSpaceOnUse">
<stop stop-color="white"/>
<stop offset="1" stop-color="#E3E8EE"/>
</linearGradient>
</defs>
</svg>
