<svg width="48" height="48" viewBox="0 0 48 48" fill="none" xmlns="http://www.w3.org/2000/svg">
<rect width="48" height="48" rx="5" fill="#F1FAFB"/>
<path d="M36 25.5C36 28.3719 35.0842 31.1689 33.3856 33.4846C31.6871 35.8003 29.2943 37.514 26.555 38.3766C23.8158 39.2392 20.8728 39.2058 18.1539 38.2813C15.4349 37.3567 13.0816 35.5892 11.4361 33.2356C9.79046 30.8819 8.93832 28.0649 9.00347 25.1937C9.06863 22.3226 10.0477 19.5471 11.7983 17.2705C13.549 14.994 15.98 13.335 18.7381 12.5347C21.4962 11.7345 24.4377 11.8346 27.135 12.8206L22.5 25.5H36Z" fill="#859EB0"/>
<path d="M31.3086 10.4872C33.6892 11.5462 35.7125 13.2714 37.1343 15.4548C38.5561 17.6381 39.3158 20.1863 39.3216 22.7918L25.8216 22.8218L31.3086 10.4872Z" fill="#9DFBF5"/>
</svg>
