<svg width="32" height="32" viewBox="0 0 32 32" fill="none" xmlns="http://www.w3.org/2000/svg">
<path d="M28 16C28 18.3734 27.2962 20.6935 25.9776 22.6668C24.6591 24.6402 22.7849 26.1783 20.5922 27.0866C18.3995 27.9948 15.9867 28.2324 13.6589 27.7694C11.3311 27.3064 9.19295 26.1635 7.51472 24.4853C5.83649 22.8071 4.6936 20.6689 4.23058 18.3411C3.76755 16.0133 4.00519 13.6005 4.91345 11.4078C5.8217 9.21509 7.35977 7.34094 9.33316 6.02236C11.3065 4.70379 13.6266 4 16 4L16 16L28 16Z" stroke="#1A1B1D"/>
<path d="M18.5716 4C19.8098 4 21.0359 4.24388 22.1798 4.71771C23.3237 5.19154 24.3631 5.88604 25.2386 6.76157C26.1142 7.63709 26.8087 8.67649 27.2825 9.82041C27.7563 10.9643 28.0002 12.1904 28.0002 13.4286L18.5716 13.4286L18.5716 4Z" fill="#1A1B1D" stroke="#1A1B1D"/>
</svg>
