<svg width="32" height="32" viewBox="0 0 32 32" fill="none" xmlns="http://www.w3.org/2000/svg">
<path d="M14.1787 11.2393L8.42702 24.7969" stroke="#1A1B1D"/>
<path d="M15.8218 11.2393L21.5735 24.7969" stroke="#1A1B1D"/>
<path fill-rule="evenodd" clip-rule="evenodd" d="M6.46168 16.5093C6.90956 16.1325 7.19419 15.5679 7.19419 14.9367C7.19419 13.8023 6.2745 12.8826 5.14001 12.8826C4.00552 12.8826 3.08583 13.8023 3.08583 14.9367C3.08583 15.5679 3.37045 16.1325 3.81834 16.5093L3.81834 17.7234H3.08583V18.7234H3.81834L3.81834 26.351H2.26416H1.76416V26.851L1.76416 28.4943L1.76416 28.9943H2.26416H8.01585H8.51585V28.4943V26.851L8.51585 26.351H8.01585H6.46168L6.46168 18.7234H7.19418V17.7234H6.46168V16.5093ZM5.46168 16.9659C5.35688 16.9824 5.24944 16.9909 5.14001 16.9909C5.03058 16.9909 4.92314 16.9824 4.81834 16.9659L4.81834 17.7234H5.46168L5.46168 16.9659ZM4.81834 26.851L4.81834 18.7234H5.46168L5.46168 26.851V27.351H5.96168H7.51585V27.9943H2.76416L2.76416 27.351H4.31834H4.81834V26.851Z" fill="#1A1B1D"/>
<path fill-rule="evenodd" clip-rule="evenodd" d="M26.1819 16.5093C26.6298 16.1325 26.9144 15.5679 26.9144 14.9367C26.9144 13.8023 25.9947 12.8826 24.8602 12.8826C23.7257 12.8826 22.806 13.8023 22.806 14.9367C22.806 15.5679 23.0907 16.1325 23.5386 16.5093V17.7234H22.806V18.7234H23.5386L23.5386 26.351H21.9844H21.4844V26.851V28.4943V28.9943H21.9844H27.7361H28.2361V28.4943V26.851L28.2361 26.351H27.7361H26.1819V18.7234H26.9144V17.7234H26.1819V16.5093ZM25.1819 16.9659C25.0771 16.9824 24.9697 16.9909 24.8602 16.9909C24.7508 16.9909 24.6434 16.9824 24.5386 16.9659V17.7234H25.1819V16.9659ZM24.5386 26.851L24.5386 18.7234H25.1819L25.1819 26.851V27.351H25.6819H27.2361V27.9943H22.4844V27.351H24.0386H24.5386V26.851Z" fill="#1A1B1D"/>
<path d="M8.42676 18.6343V18.6343C12.1903 21.9274 17.8099 21.9274 21.5735 18.6343V18.6343" stroke="#1A1B1D"/>
<path d="M16.0001 9.4299L19.9553 11.7333L18.9057 7.392L22.4001 4.47102L17.7985 4.09432L16.0001 0L14.2017 4.09432L9.6001 4.47102L13.0945 7.392L12.0449 11.7333L16.0001 9.4299Z" fill="#1A1B1D"/>
</svg>
