<svg width="32" height="32" viewBox="0 0 32 32" fill="none" xmlns="http://www.w3.org/2000/svg">
<path d="M18 28.6189H21.6189C23.6176 28.6189 25.2379 26.9987 25.2379 25V25" stroke="#1A1B1D"/>
<rect x="13.3389" y="27.0703" width="4.93732" height="2.39275" rx="0.5" stroke="#1A1B1D"/>
<path d="M6 14V13C6 7.47715 10.4772 3 16 3V3C21.5228 3 26 7.47715 26 13V14" stroke="#1A1B1D"/>
<path d="M3.5 17.5925C3.5 15.6595 5.067 14.0925 7 14.0925H8.5L8.5 25.0925H7C5.067 25.0925 3.5 23.5255 3.5 21.5925L3.5 17.5925Z" fill="#1A1B1D" stroke="#1A1B1D"/>
<path d="M28.5 17.5925C28.5 15.6595 26.933 14.0925 25 14.0925H23.5V25.0925H25C26.933 25.0925 28.5 23.5255 28.5 21.5925V17.5925Z" fill="#1A1B1D" stroke="#1A1B1D"/>
</svg>
