<svg width="32" height="32" viewBox="0 0 32 32" fill="none" xmlns="http://www.w3.org/2000/svg">
<path fill-rule="evenodd" clip-rule="evenodd" d="M17.5503 5.26362C17.8314 4.91916 18 4.47927 18 4L17.5503 5.26362ZM16.5 8.21504L17.5503 5.26362L17.5502 5.26368L18 4C18 2.89543 17.1045 2 16 2C14.8954 2 14 2.89543 14 4C14 4.93193 14.6374 5.71499 15.5 5.937L15.5 11.0247C12.9734 11.2756 11 13.4073 11 16C11 18.5927 12.9734 20.7244 15.5 20.9753V26.063C14.6374 26.285 14 27.0681 14 28C14 29.1046 14.8954 30 16 30C17.1045 30 18 29.1046 18 28C18 27.0681 17.3626 26.2851 16.5 26.063V20.9753C17.5056 20.8755 18.4235 20.4777 19.1643 19.8715L22.7148 23.422C22.5154 23.7331 22.3998 24.1031 22.3998 24.5C22.3998 25.6046 23.2952 26.5 24.3998 26.5C25.5043 26.5 26.3998 25.6046 26.3998 24.5C26.3998 23.3955 25.5043 22.5 24.3998 22.5C24.0551 22.5 23.7308 22.5872 23.4477 22.7407L19.8715 19.1644C20.4777 18.4236 20.8755 17.5056 20.9754 16.5L26.0632 16.5C26.2852 17.3626 27.0683 18 28.0002 18C29.1048 18 30.0002 17.1046 30.0002 16C30.0002 14.8954 29.1048 14 28.0002 14C27.0683 14 26.2852 14.6374 26.0632 15.5L20.9753 15.5C20.8755 14.4945 20.4778 13.5766 19.8717 12.8358L23.448 9.25946C23.731 9.41288 24.0552 9.5 24.3998 9.5C25.5043 9.5 26.3998 8.60457 26.3998 7.5C26.3998 6.39543 25.5043 5.5 24.3998 5.5C23.2952 5.5 22.3998 6.39543 22.3998 7.5C22.3998 7.89707 22.5155 8.26711 22.715 8.57825L19.1646 12.1287C18.4237 11.5224 17.5057 11.1245 16.5 11.0247V8.21504ZM16.5 8.21477L17.5502 5.26368C17.2848 5.58897 16.9189 5.82914 16.5 5.93698V8.21477ZM16.5 8.21477V8.21504L15.5002 11.0247L15.5 11.0247L16.5 8.21477ZM12.1287 19.1646C12.3403 19.4231 12.5773 19.6601 12.8358 19.8716L9.28506 23.4224C9.48435 23.7334 9.59991 24.1032 9.59991 24.5C9.59991 25.6046 8.70448 26.5 7.59991 26.5C6.49534 26.5 5.59991 25.6046 5.59991 24.5C5.59991 23.3955 6.49534 22.5 7.59991 22.5C7.94472 22.5 8.26916 22.5873 8.55233 22.7409L12.1287 19.1646ZM9.28489 8.57788L12.8356 12.1286C12.577 12.3401 12.3401 12.5771 12.1285 12.8357L8.55205 9.25925C8.26894 9.4128 7.94461 9.5 7.59991 9.5C6.49534 9.5 5.59991 8.60457 5.59991 7.5C5.59991 6.39543 6.49534 5.5 7.59991 5.5C8.70448 5.5 9.59991 6.39543 9.59991 7.5C9.59991 7.89691 9.48429 8.26682 9.28489 8.57788ZM5.93699 15.5L11.0247 15.5C11.0083 15.6645 11 15.8312 11 16C11 16.1687 11.0083 16.3355 11.0247 16.5H5.93699C5.71497 17.3626 4.93192 18 4 18C2.89543 18 2 17.1046 2 16C2 14.8954 2.89543 14 4 14C4.93192 14 5.71497 14.6374 5.93699 15.5ZM20 16C20 18.2091 18.2092 20 16 20C13.7909 20 12 18.2091 12 16C12 13.7909 13.7909 12 16 12C18.2092 12 20 13.7909 20 16Z" fill="#1A1B1D"/>
</svg>
