<svg width="32" height="32" viewBox="0 0 32 32" fill="none" xmlns="http://www.w3.org/2000/svg">
<mask id="path-1-inside-1_1290_8025" fill="white">
<path fill-rule="evenodd" clip-rule="evenodd" d="M25.8002 24.2135C26.0239 24.2129 26.2049 24.0314 26.2049 23.8076V8.36544C26.2049 8.14124 26.0232 7.95949 25.799 7.95949H6.2332C6.00929 7.95983 5.82788 8.14145 5.82788 8.36544V23.8076C5.82788 24.0318 6.00963 24.2135 6.23383 24.2135L25.799 24.2135C25.7994 24.2135 25.7998 24.2135 25.8002 24.2135ZM16.0164 27.34C20.8992 27.4252 26.0747 27.6112 29.5524 27.9975C29.8107 28.0262 30.0237 27.8004 29.9983 27.5418C29.4179 21.6156 29.1277 18.8067 29.1277 15.9979C29.1277 13.1895 29.4178 10.3811 29.9981 4.4568C30.0235 4.19727 29.8049 3.97161 29.546 4.00291C25.5832 4.48199 20.7196 4.73442 16.0164 4.76021C11.3132 4.73442 6.44961 4.48199 2.48682 4.00291C2.42787 3.99578 2.37101 4.00198 2.31864 4.01887C2.13088 4.05329 1.98631 4.21799 2.00103 4.42147C2.02166 4.70667 2.05983 4.97695 2.11069 5.23144C2.64029 10.6317 2.90509 13.3148 2.90509 15.9979C2.90509 18.8067 2.61489 21.6156 2.03448 27.5418C2.00915 27.8004 2.2221 28.0262 2.48037 27.9975C5.95814 27.6112 11.1336 27.4252 16.0164 27.34Z"/>
</mask>
<path d="M25.8002 24.2135V25.0896L25.8029 25.0895L25.8002 24.2135ZM6.2332 7.95949V7.08348L6.23187 7.08348L6.2332 7.95949ZM6.23383 24.2135L6.23383 23.3375H6.23383V24.2135ZM25.799 24.2135V25.0896V24.2135ZM16.0164 27.34L16.0317 26.4641C16.0215 26.4639 16.0113 26.4639 16.0011 26.4641L16.0164 27.34ZM29.5524 27.9975L29.6491 27.1268L29.5524 27.9975ZM29.9983 27.5418L29.1265 27.6272V27.6272L29.9983 27.5418ZM29.9981 4.4568L30.8699 4.54219V4.54218L29.9981 4.4568ZM29.546 4.00291L29.4409 3.13324V3.13324L29.546 4.00291ZM16.0164 4.76021L16.0116 5.63626L16.0212 5.6362L16.0164 4.76021ZM2.48682 4.00291L2.38168 4.87259L2.48682 4.00291ZM2.31864 4.01887L2.47659 4.88052C2.51412 4.87364 2.55116 4.86431 2.58748 4.8526L2.31864 4.01887ZM2.00103 4.42147L2.87476 4.35827L2.87476 4.35827L2.00103 4.42147ZM2.11069 5.23144L2.98251 5.14594C2.97968 5.11701 2.9754 5.08825 2.96971 5.05976L2.11069 5.23144ZM2.90509 15.9979H2.02909H2.90509ZM2.03448 27.5418L1.16264 27.4564V27.4564L2.03448 27.5418ZM2.48037 27.9975L2.38367 27.1268H2.38367L2.48037 27.9975ZM25.3289 23.8076C25.3289 23.5485 25.5386 23.3383 25.7976 23.3375L25.8029 25.0895C26.5091 25.0874 27.0809 24.5143 27.0809 23.8076H25.3289ZM25.3289 8.36544V23.8076H27.0809V8.36544H25.3289ZM25.799 8.8355C25.5394 8.8355 25.3289 8.62505 25.3289 8.36544H27.0809C27.0809 7.65744 26.507 7.08348 25.799 7.08348V8.8355ZM6.2332 8.8355H25.799V7.08348H6.2332V8.8355ZM6.23187 7.08348C5.52475 7.08456 4.95187 7.65809 4.95187 8.36544H6.70389C6.70389 8.62481 6.49384 8.8351 6.23453 8.8355L6.23187 7.08348ZM4.95187 8.36544V23.8076H6.70389V8.36544H4.95187ZM4.95187 23.8076C4.95187 24.5156 5.52583 25.0896 6.23383 25.0896V23.3375C6.49344 23.3375 6.70389 23.548 6.70389 23.8076H4.95187ZM25.799 23.3375L6.23383 23.3375L6.23383 25.0896L25.799 25.0896V23.3375ZM25.8002 23.3375C25.7989 23.3375 25.7977 23.3375 25.7976 23.3375C25.7972 23.3375 25.798 23.3375 25.799 23.3375V25.0896C25.8004 25.0896 25.8016 25.0896 25.8016 25.0896C25.802 25.0896 25.8012 25.0896 25.8002 25.0896V23.3375ZM16.0011 28.2158C20.8834 28.3011 26.0226 28.4869 29.4557 28.8682L29.6491 27.1268C26.1267 26.7356 20.9149 26.5493 16.0317 26.4641L16.0011 28.2158ZM29.4557 28.8682C30.31 28.963 30.9455 28.2255 30.8702 27.4564L29.1265 27.6272C29.1018 27.3753 29.3114 27.0893 29.6491 27.1268L29.4557 28.8682ZM30.8702 27.4564C30.2877 21.5093 30.0037 18.7531 30.0037 15.9979H28.2517C28.2517 18.8603 28.5481 21.7218 29.1265 27.6272L30.8702 27.4564ZM30.0037 15.9979C30.0037 13.2431 30.2876 10.4873 30.8699 4.54219L29.1262 4.37141C28.548 10.2749 28.2517 13.1358 28.2517 15.9979H30.0037ZM30.8699 4.54218C30.9466 3.75866 30.2888 3.03073 29.4409 3.13324L29.6511 4.87259C29.321 4.9125 29.1003 4.63587 29.1262 4.37142L30.8699 4.54218ZM29.4409 3.13324C25.5201 3.60723 20.6914 3.85855 16.0116 3.88421L16.0212 5.6362C20.7479 5.61029 25.6463 5.35674 29.6511 4.87259L29.4409 3.13324ZM2.38168 4.87259C6.38647 5.35674 11.2849 5.61029 16.0116 5.6362L16.0212 3.88421C11.3415 3.85855 6.51275 3.60723 2.59196 3.13324L2.38168 4.87259ZM2.58748 4.8526C2.5219 4.87375 2.45125 4.881 2.38168 4.87259L2.59196 3.13324C2.40449 3.11057 2.22012 3.13021 2.04981 3.18513L2.58748 4.8526ZM2.16069 3.15722C1.57245 3.26505 1.07756 3.79692 1.12731 4.48466L2.87476 4.35827C2.89507 4.63907 2.68932 4.84152 2.47659 4.88052L2.16069 3.15722ZM1.12731 4.48466C1.15068 4.80776 1.19394 5.11428 1.25167 5.40312L2.96971 5.05976C2.92571 4.83963 2.89264 4.60558 2.87476 4.35827L1.12731 4.48466ZM3.7811 15.9979C3.7811 13.262 3.51048 10.5295 2.98251 5.14594L1.23886 5.31694C1.7701 10.7338 2.02909 13.3675 2.02909 15.9979H3.7811ZM2.90631 27.6272C3.48468 21.7218 3.7811 18.8603 3.7811 15.9979H2.02909C2.02908 18.7531 1.74509 21.5093 1.16264 27.4564L2.90631 27.6272ZM2.38367 27.1268C2.72139 27.0893 2.93098 27.3753 2.90631 27.6272L1.16264 27.4564C1.08732 28.2255 1.72281 28.963 2.57707 28.8682L2.38367 27.1268ZM16.0011 26.4641C11.1178 26.5493 5.90605 26.7356 2.38367 27.1268L2.57707 28.8682C6.01023 28.4869 11.1494 28.3011 16.0317 28.2158L16.0011 26.4641Z" fill="black" mask="url(#path-1-inside-1_1290_8025)"/>
<rect x="10.5" y="15.9153" width="4.60467" height="4.60467" transform="rotate(-45 10.5 15.9153)" fill="black"/>
<path d="M18.1306 15.9153L16.4883 14.2873L18.1163 12.6593L21.3723 15.9153L18.1163 19.1713L16.4883 17.5433L18.1306 15.9153Z" fill="black"/>
</svg>
