<svg width="64" height="76" viewBox="0 0 64 76" fill="none" xmlns="http://www.w3.org/2000/svg">
<path d="M37.3555 67.6555H45.8888C50.6016 67.6555 54.4221 63.835 54.4221 59.1222V59.1222" stroke="white" stroke-width="2"/>
<mask id="path-2-inside-1_2025_10595" fill="white">
<rect x="25" y="63.5" width="14" height="8" rx="1"/>
</mask>
<rect x="25" y="63.5" width="14" height="8" rx="1" stroke="white" stroke-width="4" mask="url(#path-2-inside-1_2025_10595)"/>
<circle cx="43.7554" cy="18.5889" r="11.0889" fill="#7FC87D" stroke="white" stroke-width="2"/>
<path fill-rule="evenodd" clip-rule="evenodd" d="M54.2055 24.6694C53.9471 25.1125 53.6614 25.5377 53.3505 25.9427C53.6821 27.4684 53.8568 29.0527 53.8568 30.6777V36.3666H54.9868V30.6777C54.9868 28.6003 54.7152 26.5863 54.2055 24.6694ZM37.6741 8.13836C35.7573 7.62876 33.7435 7.35718 31.6663 7.35718C18.7867 7.35718 8.3457 17.7981 8.3457 30.6777V36.3666H9.4757V30.6777C9.4757 18.4222 19.4108 8.48718 31.6663 8.48718C33.2911 8.48718 34.8752 8.66182 36.4008 8.99336C36.8057 8.68252 37.2309 8.39675 37.6741 8.13836Z" fill="white"/>
<path d="M54.2055 24.6694L54.6887 24.5409L54.3796 23.3782L53.7736 24.4175L54.2055 24.6694ZM53.3505 25.9427L52.9539 25.6383L52.8127 25.8223L52.8619 26.0489L53.3505 25.9427ZM53.8568 36.3666H53.3568V36.8666H53.8568V36.3666ZM54.9868 36.3666V36.8666H55.4868V36.3666H54.9868ZM37.6741 8.13836L37.9259 8.57029L38.9652 7.96426L37.8025 7.65514L37.6741 8.13836ZM8.3457 36.3666H7.8457V36.8666H8.3457V36.3666ZM9.4757 36.3666V36.8666H9.9757V36.3666H9.4757ZM36.4008 8.99336L36.2946 9.48195L36.5212 9.53121L36.7052 9.38999L36.4008 8.99336ZM53.7736 24.4175C53.5259 24.8423 53.2519 25.25 52.9539 25.6383L53.7472 26.2471C54.0708 25.8255 54.3684 25.3827 54.6374 24.9212L53.7736 24.4175ZM54.3568 30.6777C54.3568 29.0167 54.1783 27.3969 53.8391 25.8365L52.8619 26.0489C53.186 27.5399 53.3568 29.0886 53.3568 30.6777H54.3568ZM54.3568 36.3666V30.6777H53.3568V36.3666H54.3568ZM54.9868 35.8666H53.8568V36.8666H54.9868V35.8666ZM54.4868 30.6777V36.3666H55.4868V30.6777H54.4868ZM53.7223 24.7979C54.2209 26.6733 54.4868 28.6441 54.4868 30.6777H55.4868C55.4868 28.5566 55.2095 26.4994 54.6887 24.5409L53.7223 24.7979ZM31.6663 7.85718C33.6997 7.85718 35.6704 8.12302 37.5456 8.62157L37.8025 7.65514C35.8442 7.1345 33.7872 6.85718 31.6663 6.85718V7.85718ZM8.8457 30.6777C8.8457 18.0743 19.0628 7.85718 31.6663 7.85718V6.85718C18.5105 6.85718 7.8457 17.522 7.8457 30.6777H8.8457ZM8.8457 36.3666V30.6777H7.8457V36.3666H8.8457ZM9.4757 35.8666H8.3457V36.8666H9.4757V35.8666ZM8.9757 30.6777V36.3666H9.9757V30.6777H8.9757ZM31.6663 7.98718C19.1346 7.98718 8.9757 18.1461 8.9757 30.6777H9.9757C9.9757 18.6984 19.6869 8.98718 31.6663 8.98718V7.98718ZM36.507 8.50476C34.9467 8.16569 33.3271 7.98718 31.6663 7.98718V8.98718C33.2552 8.98718 34.8037 9.15795 36.2946 9.48195L36.507 8.50476ZM36.7052 9.38999C37.0935 9.09196 37.5011 8.81799 37.9259 8.57029L37.4222 7.70643C36.9607 7.97552 36.518 8.27309 36.0963 8.59672L36.7052 9.38999Z" fill="white"/>
<path d="M2.7998 40.3667C2.7998 38.7098 4.14295 37.3667 5.7998 37.3667H13.5998V58.1223H5.7998C4.14295 58.1223 2.7998 56.7791 2.7998 55.1223V40.3667Z" stroke="white" stroke-width="2"/>
<path d="M60.5332 40.3667C60.5332 38.7098 59.1901 37.3667 57.5332 37.3667H49.7332V58.1223H57.5332C59.1901 58.1223 60.5332 56.7791 60.5332 55.1223V40.3667Z" stroke="white" stroke-width="2"/>
</svg>
