<svg width="40" height="40" viewBox="0 0 40 40" fill="none" xmlns="http://www.w3.org/2000/svg">
<g clip-path="url(#clip0_2280_1039)">
<path d="M27.3359 4.49805C29.258 5.11215 31.0321 6.11835 32.5484 7.45425C34.0646 8.79014 35.2907 10.4272 36.1505 12.264C37.0102 14.1008 37.4854 16.0981 37.5465 18.132C37.6076 20.166 37.2534 22.1932 36.5057 24.0879L22.8098 18.6636L27.3359 4.49805Z" fill="url(#paint0_radial_2280_1039)"/>
<path d="M33.6932 25.4297C32.4457 28.5761 30.1529 31.1971 27.2002 32.8519C24.2476 34.5067 20.8152 35.0944 17.4802 34.5162L19.9971 19.9995L33.6932 25.4297Z" stroke="url(#paint1_radial_2280_1039)" stroke-width="1.13333" stroke-linecap="round" stroke-linejoin="round"/>
<path d="M17.4658 34.5136C14.4221 33.9828 11.6223 32.5085 9.46238 30.2994C7.30244 28.0902 5.89166 25.2579 5.42956 22.203L19.9971 19.9994L17.4658 34.5136Z" stroke="url(#paint2_radial_2280_1039)" stroke-width="1.13333" stroke-linecap="round" stroke-linejoin="round"/>
<path d="M5.42667 22.1881C4.99674 19.3265 5.41897 16.4017 6.64067 13.7786C7.86238 11.1555 9.82946 8.95025 12.2965 7.43796L19.9964 19.999L5.42667 22.1881Z" stroke="url(#paint3_radial_2280_1039)" stroke-width="1.13333" stroke-linecap="round" stroke-linejoin="round"/>
<path d="M12.3102 7.43067C14.1124 6.32843 16.1305 5.62663 18.2276 5.37284C20.3248 5.11906 22.4521 5.31924 24.4651 5.9598L19.9976 19.9994L12.3102 7.43067Z" stroke="url(#paint4_radial_2280_1039)" stroke-width="1.13333" stroke-linecap="round" stroke-linejoin="round"/>
</g>
<defs>
<radialGradient id="paint0_radial_2280_1039" cx="0" cy="0" r="1" gradientUnits="userSpaceOnUse" gradientTransform="translate(29.4027 20.963) rotate(-71.9575) scale(15.0536 13.9791)">
<stop stop-color="#2D3441"/>
<stop offset="1" stop-color="#1A1B1D"/>
</radialGradient>
<radialGradient id="paint1_radial_2280_1039" cx="0" cy="0" r="1" gradientUnits="userSpaceOnUse" gradientTransform="translate(22.4163 35.3092) rotate(-71.9311) scale(13.8459 13.9467)">
<stop stop-color="#2D3441"/>
<stop offset="1" stop-color="#1A1B1D"/>
</radialGradient>
<radialGradient id="paint2_radial_2280_1039" cx="0" cy="0" r="1" gradientUnits="userSpaceOnUse" gradientTransform="translate(10.031 31.4882) rotate(-71.9226) scale(13.9784 14.4347)">
<stop stop-color="#2D3441"/>
<stop offset="1" stop-color="#1A1B1D"/>
</radialGradient>
<radialGradient id="paint3_radial_2280_1039" cx="0" cy="0" r="1" gradientUnits="userSpaceOnUse" gradientTransform="translate(10.8799 23.063) rotate(-71.9628) scale(15.3145 13.979)">
<stop stop-color="#2D3441"/>
<stop offset="1" stop-color="#1A1B1D"/>
</radialGradient>
<radialGradient id="paint4_radial_2280_1039" cx="0" cy="0" r="1" gradientUnits="userSpaceOnUse" gradientTransform="translate(14.6408 17.4939) rotate(-72.0151) scale(13.9783 10.5792)">
<stop stop-color="#2D3441"/>
<stop offset="1" stop-color="#1A1B1D"/>
</radialGradient>
<clipPath id="clip0_2280_1039">
<rect width="40" height="40" fill="white"/>
</clipPath>
</defs>
</svg>
