<svg width="40" height="40" viewBox="0 0 40 40" fill="none" xmlns="http://www.w3.org/2000/svg">
<g clip-path="url(#clip0_2280_1008)">
<g clip-path="url(#clip1_2280_1008)">
<path d="M20.5758 36.2099C29.1901 35.9927 35.9973 28.8334 35.7801 20.2191L36.7798 20.1939C37.0109 29.3603 29.7674 36.9785 20.601 37.2096L20.5758 36.2099ZM4.58503 21.0056C4.80221 29.6199 11.9615 36.4271 20.5758 36.2099L20.601 37.2096C11.4346 37.4407 3.81645 30.1972 3.58535 21.0308L4.58503 21.0056ZM19.7893 5.01478C11.1751 5.23196 4.36785 12.3913 4.58503 21.0056L3.58535 21.0308C3.35425 11.8644 10.5977 4.24619 19.7641 4.0151L19.7893 5.01478ZM35.7801 20.2191C35.5629 11.6048 28.4036 4.7976 19.7893 5.01478L19.7641 4.0151C28.9305 3.784 36.5487 11.0275 36.7798 20.1939L35.7801 20.2191ZM20.4368 30.6945C26.0051 30.5541 30.4054 25.9263 30.265 20.358L31.2647 20.3328C31.419 26.4532 26.5825 31.5399 20.462 31.6942L20.4368 30.6945ZM10.1003 20.8663C10.2407 26.4347 14.8685 30.8349 20.4368 30.6945L20.462 31.6942C14.3416 31.8485 9.25491 27.012 9.1006 20.8915L10.1003 20.8663ZM19.9284 10.5298C14.3601 10.6702 9.9599 15.298 10.1003 20.8663L9.1006 20.8915C8.94629 14.7711 13.7828 9.68442 19.9032 9.53012L19.9284 10.5298ZM30.265 20.358C30.1246 14.7896 25.4968 10.3894 19.9284 10.5298L19.9032 9.53012C26.0237 9.37581 31.1103 14.2123 31.2647 20.3328L30.265 20.358Z" fill="url(#paint0_radial_2280_1008)"/>
</g>
<g clip-path="url(#clip2_2280_1008)">
<mask id="path-2-inside-1_2280_1008" fill="white">
<path fill-rule="evenodd" clip-rule="evenodd" d="M36.2803 20.2061C36.5044 29.0965 29.4791 36.4852 20.5888 36.7093C11.6984 36.9335 4.30967 29.9081 4.08553 21.0178C3.86139 12.1275 10.8867 4.73871 19.7771 4.51457C28.6674 4.29043 36.0562 11.3158 36.2803 20.2061ZM30.1309 20.3613C30.2694 25.8553 25.9279 30.4214 20.4338 30.5599C14.9398 30.6985 10.3737 26.3569 10.2352 20.8629C10.0967 15.3688 14.4382 10.8028 19.9322 10.6642C25.4263 10.5257 29.9924 14.8672 30.1309 20.3613Z"/>
</mask>
<path fill-rule="evenodd" clip-rule="evenodd" d="M36.2803 20.2061C36.5044 29.0965 29.4791 36.4852 20.5888 36.7093C11.6984 36.9335 4.30967 29.9081 4.08553 21.0178C3.86139 12.1275 10.8867 4.73871 19.7771 4.51457C28.6674 4.29043 36.0562 11.3158 36.2803 20.2061ZM30.1309 20.3613C30.2694 25.8553 25.9279 30.4214 20.4338 30.5599C14.9398 30.6985 10.3737 26.3569 10.2352 20.8629C10.0967 15.3688 14.4382 10.8028 19.9322 10.6642C25.4263 10.5257 29.9924 14.8672 30.1309 20.3613Z" fill="url(#paint1_radial_2280_1008)"/>
<path d="M20.5636 35.7097C28.9018 35.4994 35.4908 28.5696 35.2806 20.2313L37.28 20.1809C37.518 29.6234 30.0564 37.471 20.614 37.709L20.5636 35.7097ZM5.08521 20.9926C5.29543 29.3308 12.2253 35.9199 20.5636 35.7097L20.614 37.709C11.1715 37.9471 3.3239 30.4855 3.08584 21.043L5.08521 20.9926ZM19.8023 5.51425C11.464 5.72447 4.87499 12.6544 5.08521 20.9926L3.08584 21.043C2.84779 11.6006 10.3094 3.75295 19.7519 3.51489L19.8023 5.51425ZM35.2806 20.2313C35.0704 11.8931 28.1405 5.30403 19.8023 5.51425L19.7519 3.51489C29.1943 3.27683 37.0419 10.7385 37.28 20.1809L35.2806 20.2313ZM20.4086 29.5603C25.3506 29.4357 29.2558 25.3284 29.1312 20.3865L31.1306 20.3361C31.283 26.3822 26.5052 31.4072 20.459 31.5596L20.4086 29.5603ZM11.2349 20.8377C11.3595 25.7796 15.4667 29.6849 20.4086 29.5603L20.459 31.5596C14.4129 31.7121 9.38793 26.9342 9.23549 20.8881L11.2349 20.8377ZM19.9574 11.6639C15.0155 11.7885 11.1103 15.8957 11.2349 20.8377L9.23549 20.8881C9.08306 14.8419 13.8609 9.81699 19.907 9.66456L19.9574 11.6639ZM29.1312 20.3865C29.0066 15.4446 24.8994 11.5393 19.9574 11.6639L19.907 9.66456C25.9532 9.51212 30.9781 14.2899 31.1306 20.3361L29.1312 20.3865Z" fill="url(#paint2_radial_2280_1008)" mask="url(#path-2-inside-1_2280_1008)"/>
</g>
</g>
<defs>
<radialGradient id="paint0_radial_2280_1008" cx="0" cy="0" r="1" gradientUnits="userSpaceOnUse" gradientTransform="translate(34.6087 19.4097) rotate(178.22) scale(30.5549 30.5562)">
<stop stop-color="#2D3441"/>
<stop offset="1" stop-color="#1A1B1D"/>
</radialGradient>
<radialGradient id="paint1_radial_2280_1008" cx="0" cy="0" r="1" gradientUnits="userSpaceOnUse" gradientTransform="translate(34.609 19.4093) rotate(178.22) scale(30.5549 30.5562)">
<stop stop-color="#2D3441"/>
<stop offset="1" stop-color="#1A1B1D"/>
</radialGradient>
<radialGradient id="paint2_radial_2280_1008" cx="0" cy="0" r="1" gradientUnits="userSpaceOnUse" gradientTransform="translate(34.609 19.4093) rotate(178.22) scale(30.5549 30.5562)">
<stop stop-color="#2D3441"/>
<stop offset="1" stop-color="#1A1B1D"/>
</radialGradient>
<clipPath id="clip0_2280_1008">
<rect width="40" height="40" fill="white"/>
</clipPath>
<clipPath id="clip1_2280_1008">
<rect width="34.5498" height="16.4955" fill="white" transform="matrix(0.0252035 0.999682 0.999682 -0.0252035 21.4274 3.30017)"/>
</clipPath>
<clipPath id="clip2_2280_1008">
<rect width="39.6369" height="16.0664" fill="white" transform="matrix(0.0252035 0.999682 0.999682 -0.0252035 2.77051 1.63916)"/>
</clipPath>
</defs>
</svg>
