<svg width="32" height="32" viewBox="0 0 32 32" fill="none" xmlns="http://www.w3.org/2000/svg">
<path d="M1.64645 15.6464L1.29289 16L1.64645 16.3536L2.91853 17.6256C10.1432 24.8503 21.8568 24.8503 29.0815 17.6256L30.3536 16.3536L30.7071 16L30.3536 15.6464L29.0815 14.3744C21.8568 7.14967 10.1432 7.14967 2.91853 14.3744L1.64645 15.6464Z" stroke="#1A1B1D"/>
<path fill-rule="evenodd" clip-rule="evenodd" d="M26.237 12.6467C26.3194 12.7037 26.4013 12.7615 26.4829 12.8201L26.7869 12.728L27.2654 12.583C27.0397 11.8382 26.7423 11.1246 26.3812 10.4505L25.9405 10.6866L25.4997 10.9227C25.7932 11.4707 26.0407 12.0471 26.237 12.6467ZM5.76341 12.6465C5.95969 12.047 6.20716 11.4707 6.50066 10.9227L6.05991 10.6866L5.61915 10.4505C5.2581 11.1246 4.96066 11.8381 4.73499 12.583L5.21351 12.728L5.51734 12.8201C5.59899 12.7614 5.68101 12.7036 5.76341 12.6465ZM5.51734 19.1803L5.21351 19.2724L4.73499 19.4173C4.96066 20.1622 5.2581 20.8757 5.61915 21.5498L6.05991 21.3137L6.50066 21.0777C6.20716 20.5297 5.95969 19.9534 5.76341 19.3539C5.68101 19.2968 5.59899 19.2389 5.51734 19.1803ZM26.237 19.3537C26.0407 19.9533 25.7932 20.5296 25.4997 21.0777L25.9405 21.3137L26.3812 21.5498C26.7423 20.8757 27.0397 20.1622 27.2654 19.4173L26.7869 19.2724L26.4829 19.1803C26.4013 19.2389 26.3194 19.2967 26.237 19.3537ZM24.7116 8.85074L24.3252 9.16815C23.8775 8.62316 23.3772 8.12292 22.8322 7.67514L23.1496 7.28881L23.467 6.90249C24.0624 7.39161 24.6088 7.93801 25.0979 8.53333L24.7116 8.85074ZM21.3137 6.0599L21.0777 6.50066C20.461 6.17037 19.8085 5.89837 19.1274 5.69202L19.2724 5.2135L19.4173 4.73498C20.1622 4.96066 20.8758 5.2581 21.5498 5.61915L21.3137 6.0599ZM17.1046 4.78442L17.0562 5.28207C16.7087 5.24826 16.3565 5.23096 16.0002 5.23096C15.6439 5.23096 15.2916 5.24826 14.9442 5.28207L14.8958 4.78442L14.8473 4.28677C15.2269 4.24983 15.6115 4.23096 16.0002 4.23096C16.3889 4.23096 16.7735 4.24983 17.153 4.28677L17.1046 4.78442ZM12.728 5.2135L12.873 5.69202C12.1919 5.89837 11.5394 6.17037 10.9227 6.50066L10.6866 6.0599L10.4506 5.61915C11.1246 5.2581 11.8382 4.96066 12.583 4.73498L12.728 5.2135ZM8.85074 7.28881L9.16816 7.67514C8.62316 8.12292 8.12292 8.62316 7.67514 9.16815L7.28882 8.85074L6.90249 8.53333C7.39161 7.93801 7.93802 7.39161 8.53333 6.90249L8.85074 7.28881ZM7.28882 23.1496L7.67514 22.8322C8.12292 23.3772 8.62317 23.8775 9.16816 24.3252L8.85074 24.7116L8.53333 25.0979C7.93802 24.6088 7.39161 24.0624 6.90249 23.467L7.28882 23.1496ZM10.6866 25.9405L10.9227 25.4997C11.5394 25.83 12.1919 26.102 12.873 26.3084L12.728 26.7869L12.583 27.2654C11.8382 27.0397 11.1246 26.7423 10.4506 26.3812L10.6866 25.9405ZM14.8958 27.216L14.9442 26.7183C15.2916 26.7521 15.6439 26.7694 16.0002 26.7694C16.3565 26.7694 16.7087 26.7521 17.0562 26.7183L17.1046 27.216L17.153 27.7136C16.7735 27.7505 16.3889 27.7694 16.0002 27.7694C15.6115 27.7694 15.2269 27.7505 14.8473 27.7136L14.8958 27.216ZM19.2724 26.7869L19.1274 26.3084C19.8085 26.102 20.461 25.83 21.0777 25.4997L21.3137 25.9405L21.5498 26.3812C20.8758 26.7423 20.1622 27.0397 19.4173 27.2654L19.2724 26.7869ZM23.1496 24.7116L22.8322 24.3252C23.3772 23.8775 23.8775 23.3772 24.3252 22.8322L24.7116 23.1496L25.0979 23.467C24.6088 24.0624 24.0624 24.6088 23.467 25.0979L23.1496 24.7116Z" fill="#1A1B1D"/>
<circle cx="16" cy="16" r="7" fill="#1A1B1D"/>
<path d="M11 18L13.5714 14.6667L16.1429 18L18.7143 14.6667M18.7143 14.6667L18.0714 13.8333L20 13L19.3571 15.5L18.7143 14.6667Z" stroke="white"/>
</svg>
