<svg width="32" height="32" viewBox="0 0 32 32" fill="none" xmlns="http://www.w3.org/2000/svg">
<path d="M14.1783 11.2393L8.42662 24.7969" stroke="#1A1B1D"/>
<path d="M15.8217 11.2393L21.5733 24.7969" stroke="#1A1B1D"/>
<path fill-rule="evenodd" clip-rule="evenodd" d="M6.83814 16.5262C7.31677 16.1495 7.62216 15.5775 7.62216 14.937C7.62216 13.8025 6.66403 12.8828 5.48212 12.8828C4.30022 12.8828 3.34209 13.8025 3.34209 14.937C3.34209 15.5775 3.64748 16.1495 4.12612 16.5262L4.12612 17.7237H3V18.7237H4.12612L4.12612 26.3512H2.48608H1.98608V26.8512L1.98608 28.4946L1.98608 28.9946H2.48608H8.47817H8.97817V28.4946V26.8512L8.97817 26.3512H8.47817H6.83814L6.83814 18.7237H8V17.7237H6.83814V16.5262ZM5.83814 16.9629C5.72235 16.9815 5.60342 16.9912 5.48212 16.9912C5.36083 16.9912 5.2419 16.9815 5.12612 16.9629L5.12612 17.7237H5.83814L5.83814 16.9629ZM5.12612 26.8512L5.12612 18.7237H5.83814L5.83814 26.8512V27.3512H6.33814H7.97817V27.9946H2.98608L2.98608 27.3512H4.62612H5.12612V26.8512Z" fill="#1A1B1D"/>
<path fill-rule="evenodd" clip-rule="evenodd" d="M25.8521 16.5262C26.3307 16.1495 26.6361 15.5775 26.6361 14.937C26.6361 13.8025 25.6779 12.8828 24.496 12.8828C23.3141 12.8828 22.356 13.8025 22.356 14.937C22.356 15.5775 22.6614 16.1495 23.14 16.5262V17.7237H22.0139V18.7237H23.14L23.14 26.3512H21.5H21V26.8512V28.4946V28.9946H21.5H27.4921H27.9921V28.4946V26.8512L27.9921 26.3512H27.4921H25.8521V18.7237H27.0139V17.7237H25.8521V16.5262ZM24.8521 16.9629C24.7363 16.9815 24.6173 16.9912 24.496 16.9912C24.3747 16.9912 24.2558 16.9815 24.14 16.9629V17.7237H24.8521V16.9629ZM24.14 26.8512L24.14 18.7237H24.8521L24.8521 26.8512V27.3512H25.3521H26.9921V27.9946H22V27.3512H23.64H24.14V26.8512Z" fill="#1A1B1D"/>
<path d="M8.42664 18.6348V18.6348C12.1902 21.9279 17.8098 21.9279 21.5734 18.6348V18.6348" stroke="#1A1B1D"/>
<path d="M16 9.73629L19.9998 11.854L18.9384 7.86275L22.4722 5.17734L17.8187 4.83101L16 1.06689L14.1813 4.83101L9.52774 5.17734L13.0616 7.86275L12.0001 11.854L16 9.73629Z" fill="#1A1B1D"/>
</svg>
