<svg width="52" height="52" viewBox="0 0 52 52" fill="none" xmlns="http://www.w3.org/2000/svg">
<path d="M23.3182 35.541L22.8829 35.787C22.9717 35.9439 23.138 36.0409 23.3182 36.041L23.3182 35.541ZM30.6663 35.5415L30.6664 36.0415C30.8858 36.0415 31.0795 35.8985 31.1441 35.6888L30.6663 35.5415ZM22.535 33.6895L23.0109 33.5363C22.9626 33.3863 22.8464 33.2679 22.6974 33.2167C22.5484 33.1654 22.3839 33.1875 22.2537 33.2761L22.535 33.6895ZM15.4052 38.5412L14.9052 38.5412C14.9052 38.7264 15.0076 38.8965 15.1714 38.9831C15.3351 39.0698 15.5334 39.0588 15.6865 38.9546L15.4052 38.5412ZM15.4038 29.5412L15.1268 29.1249C14.9875 29.2176 14.9038 29.3738 14.9038 29.5412L15.4038 29.5412ZM21.3455 25.5882L21.6225 26.0045C21.7675 25.9081 21.8518 25.7431 21.8452 25.5692L21.3455 25.5882ZM21.6216 18.5408L21.1279 18.4611L21.6216 18.5408ZM26.7069 3.54118L27.1128 3.24922C27.0132 3.11078 26.8499 3.03264 26.6796 3.04193C26.5093 3.05122 26.3556 3.14666 26.2716 3.29512L26.7069 3.54118ZM32.3607 18.5416L31.8796 18.6775L32.3607 18.5416ZM32.6335 25.9629L32.1363 25.9098C32.1165 26.095 32.2014 26.2759 32.3565 26.3791L32.6335 25.9629ZM38.0135 29.5425L38.5135 29.5425C38.5134 29.3752 38.4297 29.2189 38.2904 29.1262L38.0135 29.5425ZM38.0148 38.5425L37.7336 38.9559C37.8868 39.0601 38.085 39.0711 38.2487 38.9844C38.4125 38.8978 38.5149 38.7277 38.5148 38.5425L38.0148 38.5425ZM31.1428 33.8666L31.424 33.4532C31.2898 33.362 31.1198 33.3414 30.9678 33.3982C30.8158 33.4549 30.7008 33.5819 30.6594 33.7387L31.1428 33.8666ZM23.3182 36.041L30.6664 36.0415L30.6663 35.0415L23.3182 35.041L23.3182 36.041ZM22.0591 33.8427C22.2903 34.5608 22.5624 35.22 22.8829 35.787L23.7535 35.2949C23.4752 34.8027 23.2278 34.2098 23.0109 33.5363L22.0591 33.8427ZM15.6865 38.9546L22.8163 34.1029L22.2537 33.2761L15.1238 38.1278L15.6865 38.9546ZM14.9038 29.5412L14.9052 38.5412L15.9052 38.5412L15.9038 29.5412L14.9038 29.5412ZM21.0685 25.1719L15.1268 29.1249L15.6808 29.9575L21.6225 26.0045L21.0685 25.1719ZM21.1279 18.4611C20.8746 20.0308 20.736 22.7332 20.8459 25.6072L21.8452 25.5692C21.7367 22.7346 21.8759 20.1031 22.1152 18.6206L21.1279 18.4611ZM26.2716 3.29512C25.4908 4.67679 24.3187 7.7722 23.2944 10.8322C22.269 13.8957 21.3613 17.0154 21.1279 18.4611L22.1152 18.6206C22.3338 17.2663 23.2152 14.2194 24.2427 11.1498C25.2714 8.07657 26.416 5.07215 27.1422 3.78725L26.2716 3.29512ZM32.8418 18.4056C32.1592 15.9907 31.0712 12.6864 29.9886 9.75569C29.4472 8.29006 28.9054 6.9129 28.4145 5.78411C27.9296 4.66906 27.4776 3.75631 27.1128 3.24922L26.3011 3.83315C26.5958 4.24277 27.0107 5.06342 27.4975 6.1828C27.9783 7.28846 28.513 8.64679 29.0506 10.1021C30.1259 13.0132 31.2053 16.2924 31.8796 18.6775L32.8418 18.4056ZM33.1307 26.0159C33.4213 23.2905 33.4408 20.5243 32.8418 18.4056L31.8796 18.6775C32.4254 20.6083 32.4231 23.2199 32.1363 25.9098L33.1307 26.0159ZM38.2904 29.1262L32.9104 25.5466L32.3565 26.3791L37.7365 29.9588L38.2904 29.1262ZM38.5148 38.5425L38.5135 29.5425L37.5135 29.5425L37.5148 38.5425L38.5148 38.5425ZM30.8615 34.28L37.7336 38.9559L38.2961 38.1291L31.424 33.4532L30.8615 34.28ZM31.1441 35.6888C31.2946 35.2007 31.4583 34.6294 31.6262 33.9945L30.6594 33.7387C30.4946 34.362 30.3346 34.9202 30.1885 35.3941L31.1441 35.6888Z" fill="url(#paint0_radial_2280_927)"/>
<mask id="mask0_2280_927" style="mask-type:alpha" maskUnits="userSpaceOnUse" x="17" y="-9" width="32" height="56">
<path d="M19.2456 -6.33236C28.2776 4.50481 30.0874 21.7587 26.8531 34.1806C23.6188 46.6025 34.5651 46.6444 34.9189 46.8936C35.3611 47.2051 45.5966 45.468 45.9487 45.0769C46.2303 44.764 47.6272 34.1155 48.2904 28.8303L47.9872 13.9163C47.9872 13.9163 10.2137 -17.1695 19.2456 -6.33236Z" fill="#C4C4C4"/>
</mask>
<g mask="url(#mask0_2280_927)">
<path fill-rule="evenodd" clip-rule="evenodd" d="M30.6624 35.5419L23.3143 35.5414C23.0182 35.0177 22.7609 34.3996 22.5385 33.713L15.4007 39.5412L15.3999 29.5412L21.3416 25.5882C21.2325 22.7341 21.3713 20.0674 21.6176 18.5413C22.0696 15.7414 25.1959 6.20824 26.703 3.54167C28.0221 5.3751 30.9999 13.742 32.3568 18.5421C32.9291 20.5666 32.9183 23.2553 32.6296 25.9629L38.0096 29.5425L38.0109 38.5425L31.139 33.8667C30.9726 34.4959 30.8107 35.0608 30.6624 35.5419Z" fill="url(#paint1_radial_2280_927)"/>
<path d="M23.3143 35.5414L22.879 35.7874C22.9678 35.9444 23.1341 36.0414 23.3143 36.0414L23.3143 35.5414ZM30.6624 35.5419L30.6624 36.0419C30.8818 36.042 31.0756 35.8989 31.1402 35.6893L30.6624 35.5419ZM22.5385 33.713L23.0142 33.559C22.9633 33.4019 22.8381 33.2801 22.6797 33.2334C22.5213 33.1867 22.3501 33.2213 22.2222 33.3257L22.5385 33.713ZM15.4007 39.5412L14.9007 39.5412C14.9007 39.7343 15.0119 39.9101 15.1864 39.9929C15.3608 40.0757 15.5674 40.0506 15.7169 39.9285L15.4007 39.5412ZM15.3999 29.5412L15.1229 29.1249C14.9836 29.2176 14.8999 29.3738 14.8999 29.5412L15.3999 29.5412ZM21.3416 25.5882L21.6186 26.0045C21.7636 25.9081 21.8479 25.7432 21.8412 25.5692L21.3416 25.5882ZM21.6176 18.5413L21.124 18.4616L21.6176 18.5413ZM26.703 3.54167L27.1089 3.24971C27.0093 3.11127 26.846 3.03312 26.6757 3.04242C26.5054 3.05171 26.3516 3.14715 26.2677 3.29561L26.703 3.54167ZM32.3568 18.5421L31.8757 18.678L32.3568 18.5421ZM32.6296 25.9629L32.1324 25.9098C32.1127 26.0951 32.1976 26.2759 32.3527 26.3791L32.6296 25.9629ZM38.0096 29.5425L38.5096 29.5425C38.5095 29.3752 38.4258 29.2189 38.2865 29.1262L38.0096 29.5425ZM38.0109 38.5425L37.7297 38.9559C37.8829 39.0601 38.0811 39.0711 38.2448 38.9844C38.4086 38.8978 38.511 38.7277 38.5109 38.5425L38.0109 38.5425ZM31.139 33.8667L31.4202 33.4533C31.2861 33.362 31.116 33.3415 30.964 33.3983C30.812 33.455 30.697 33.582 30.6556 33.7388L31.139 33.8667ZM23.3143 36.0414L30.6624 36.0419L30.6624 35.0419L23.3143 35.0414L23.3143 36.0414ZM22.0628 33.867C22.2924 34.5758 22.562 35.2267 22.879 35.7874L23.7496 35.2954C23.4744 34.8086 23.2294 34.2234 23.0142 33.559L22.0628 33.867ZM15.7169 39.9285L22.8548 34.1003L22.2222 33.3257L15.0844 39.1539L15.7169 39.9285ZM14.8999 29.5412L14.9007 39.5412L15.9007 39.5412L15.8999 29.5412L14.8999 29.5412ZM21.0646 25.1719L15.1229 29.1249L15.6769 29.9575L21.6186 26.0045L21.0646 25.1719ZM21.124 18.4616C20.8707 20.0312 20.7321 22.7334 20.842 25.6072L21.8412 25.5692C21.7328 22.7348 21.872 20.1035 22.1113 18.6211L21.124 18.4616ZM26.2677 3.29561C25.4868 4.67728 24.3148 7.77269 23.2905 10.8327C22.2651 13.8962 21.3574 17.0158 21.124 18.4616L22.1113 18.6211C22.3299 17.2668 23.2113 14.2199 24.2388 11.1502C25.2675 8.07706 26.4121 5.07263 27.1383 3.78774L26.2677 3.29561ZM32.8379 18.4061C32.1553 15.9912 31.0673 12.6868 29.9847 9.75618C29.4433 8.29055 28.9015 6.91339 28.4106 5.7846C27.9257 4.66955 27.4737 3.7568 27.1089 3.24971L26.2972 3.83364C26.5919 4.24326 27.0068 5.0639 27.4936 6.18329C27.9744 7.28895 28.5091 8.64728 29.0467 10.1026C30.122 13.0137 31.2014 16.2929 31.8757 18.678L32.8379 18.4061ZM33.1268 26.016C33.4174 23.2906 33.4368 20.5246 32.8379 18.4061L31.8757 18.678C32.4214 20.6087 32.4192 23.2201 32.1324 25.9098L33.1268 26.016ZM38.2865 29.1262L32.9065 25.5466L32.3527 26.3791L37.7326 29.9588L38.2865 29.1262ZM38.5109 38.5425L38.5096 29.5425L37.5096 29.5425L37.5109 38.5425L38.5109 38.5425ZM30.8577 34.28L37.7297 38.9559L38.2922 38.1291L31.4202 33.4533L30.8577 34.28ZM31.1402 35.6893C31.2907 35.2011 31.4545 34.6296 31.6224 33.9945L30.6556 33.7388C30.4908 34.3623 30.3307 34.9206 30.1846 35.3946L31.1402 35.6893Z" fill="url(#paint2_radial_2280_927)"/>
</g>
<defs>
<radialGradient id="paint0_radial_2280_927" cx="0" cy="0" r="1" gradientUnits="userSpaceOnUse" gradientTransform="translate(26.1207 36.748) rotate(-89.7877) scale(33.207 21.453)">
<stop stop-color="#2D3441"/>
<stop offset="1" stop-color="#1A1B1D"/>
</radialGradient>
<radialGradient id="paint1_radial_2280_927" cx="0" cy="0" r="1" gradientUnits="userSpaceOnUse" gradientTransform="translate(26.1169 37.6967) rotate(-89.7937) scale(34.1553 21.453)">
<stop stop-color="#2D3441"/>
<stop offset="1" stop-color="#1A1B1D"/>
</radialGradient>
<radialGradient id="paint2_radial_2280_927" cx="0" cy="0" r="1" gradientUnits="userSpaceOnUse" gradientTransform="translate(26.1169 37.6967) rotate(-89.7937) scale(34.1553 21.453)">
<stop stop-color="#2D3441"/>
<stop offset="1" stop-color="#1A1B1D"/>
</radialGradient>
</defs>
</svg>
